<svg version="1" xmlns="http://www.w3.org/2000/svg" width="204" height="204" viewBox="0 0 153.000000 153.000000"><path d="M77.4 23.2c-1 1.1-5.6 3.8-10.1 5.9-4.5 2.1-10.1 5.5-12.3 7.5-14.8 13.4-14 33.9 1.6 43 5.5 3.2 6.7 2.6 2.5-1.3-4.2-3.9-5.8-10.3-4-16.3l1.3-4.5.6 5.7c.4 4.1 1.2 6.4 2.9 8.2 3 3.2 3.6 2.7 2.2-1.7-1.5-4.3-.2-7.8 4.1-11.8 4.4-3.9 5.3-3.7 2.3.7-3.1 4.6-3.2 6.4-.2 3.6 3.4-3.2 9.1-5.2 14.4-5.1h4.8l-4.3 1.4c-7.9 2.5-9.6 6-2 4.3 6.2-1.4 11.7.3 18 5.8 10.9 9.5 28.4 14.3 39.6 10.8.8-.2 0-1.5-2.3-3.5-1.9-1.7-6-6.9-9-11.5-7.5-11.5-14.6-15.8-29.6-17.9-5.1-.7-14.7.7-19 2.9-1.6.8-2.9 1.3-2.9 1.1 0-.1 1.1-2.2 2.4-4.6 2.7-4.9 4.3-15.4 3.2-21.3-.8-4.2-1.6-4.4-4.2-1.4z"/><path d="M92.6 68.7c1.8 1.5 3.7 3.8 4.3 5 1.5 2.9 1.4 9.8-.1 14-1.5 4.2-3 4.3-1.7.1 1.1-4-.4-9.8-3.1-12.3-2.6-2.3-3.4-1.5-1.9 1.8 1.6 3.4-.9 10.2-5.1 14.2-3.7 3.5-3.8 2.8-.5-2.1 2.5-3.6 3.2-6.4 1.7-6.4-.4 0-1.3.9-1.9 1.9-.7 1.1-4.1 3.3-7.7 5C71.3 92.5 69 93 63.4 93c-3.8-.1-8.2-.6-9.7-1.3-2.5-1.1-1.8-1.2 6-1.2 7.7 0 9.4-.4 13.3-2.6 4.5-2.7 7.1-6.1 3.4-4.4-1.1.5-4.3 1.1-7.3 1.3-5 .4-6.3 0-16.9-5.4-11.5-5.9-11.6-5.9-20.1-5.8-6.8 0-9.6.5-13.5 2.3l-5 2.4 3 2c1.6 1.1 6.6 5.8 11.2 10.4 11 11.2 15.4 13.3 28.3 13.3 9.8 0 15-1.1 18.2-3.8 2.4-2.1 2.1-.6-.5 3.1-1.9 2.6-2.4 4.8-2.7 12-.1 4.8 0 10.3.3 12.2l.7 3.3 9.7-6c14.9-9.2 17.1-10.9 20.8-15.2 3.7-4.3 6.4-11.7 6.4-17.6 0-10.6-8.4-23.1-17-25.4-2.4-.7-2.4-.6.6 2.1z"/><path d="M72.7 70.8c-2.2 2.4-2.1 4.5.1 6.5 2.4 2.2 3.5 2.1 5.5-.1 2.2-2.4 2.1-4.5-.1-6.5-2.4-2.2-3.5-2.1-5.5.1zm1 4.4c-.3.8-.6.5-.6-.6-.1-1.1.2-1.7.5-1.3.3.3.4 1.2.1 1.9zm4 .3c-.4.8-1.1 1.5-1.7 1.5-.6 0-.6-.7.2-2 1.4-2.2 2.4-1.9 1.5.5z"/></svg>